<svg xmlns="http://www.w3.org/2000/svg" xml:space="preserve" x="0px" y="0px" viewBox="0 0 125 40"><g fill="#1A1A1A"><path d="M63.701 22.858 58.793 9.247a.579.579 0 0 0-.544-.382h-5.055a.577.577 0 0 0-.537.792l8.353 21.114c.088.22.301.367.539.367h4.305a.586.586 0 0 0 .54-.367l8.353-21.114a.579.579 0 0 0-.538-.792h-5.055a.578.578 0 0 0-.544.382l-4.909 13.611zM79.244 31.136h4.632a.58.58 0 0 0 .579-.579V9.444a.58.58 0 0 0-.579-.579h-4.632a.58.58 0 0 0-.58.579v21.114a.58.58 0 0 0 .58.578M125 13.186V9.443a.58.58 0 0 0-.578-.579H110.88a.58.58 0 0 0-.58.579v21.115c0 .32.261.579.58.579h13.542c.32 0 .578-.259.578-.579v-3.742a.578.578 0 0 0-.578-.579h-8.665V22.28h7.996a.58.58 0 0 0 .581-.58v-3.519a.58.58 0 0 0-.581-.579h-7.996v-3.837h8.665a.58.58 0 0 0 .578-.579M102.845 19.546s2.914-1.712 2.914-4.968c0-3.254-2.297-5.714-6.066-5.714l-.021.002v-.002H90.37a.58.58 0 0 0-.58.579v21.114c0 .32.26.579.58.579h9.301c3.756-.01 6.601-1.835 6.601-6.108.001-4.282-3.427-5.482-3.427-5.482m-7.597-6.228h2.808c.766 0 2.322.402 2.322 2.288 0 1.884-1.133 2.389-1.946 2.389h-3.184v-4.677zm3.226 13.363h-3.225v-4.676h3.018c.984 0 2.456.283 2.456 2.338-.001 2.228-1.762 2.338-2.249 2.338M.403 17.66h3.712a.404.404 0 0 0 .404-.402V7.573a.403.403 0 0 0-.404-.403H.403A.403.403 0 0 0 0 7.573v9.685c0 .221.181.402.403.402M6.536 23.793h3.712c.224 0 .405-.18.405-.403V3.7a.404.404 0 0 0-.405-.404H6.536a.404.404 0 0 0-.404.404v19.69a.404.404 0 0 0 .404.403M12.67 30.088h3.712a.403.403 0 0 0 .403-.403V9.995a.404.404 0 0 0-.403-.405H12.67a.404.404 0 0 0-.404.405v19.69c0 .222.181.403.404.403M24.936 30.088h3.712a.403.403 0 0 0 .402-.403V9.995a.404.404 0 0 0-.402-.405h-3.712a.404.404 0 0 0-.404.405v19.69c0 .222.181.403.404.403M31.068 23.793h3.712c.223 0 .404-.18.404-.403V3.7a.404.404 0 0 0-.404-.404h-3.712a.402.402 0 0 0-.402.404v19.69c0 .223.179.403.402.403M37.201 17.66h3.712a.403.403 0 0 0 .404-.402V7.573a.403.403 0 0 0-.404-.403h-3.712a.403.403 0 0 0-.403.403v9.685a.402.402 0 0 0 .403.402M18.802 36.704h3.712c.223 0 .405-.18.405-.402v-19.69a.405.405 0 0 0-.405-.405h-3.712a.404.404 0 0 0-.404.405v19.69a.404.404 0 0 0 .404.402"/></g><path fill="none" d="M0 0h125v40H0z"/></svg>